<mxfile host="app.diagrams.net" modified="2024-05-22T05:45:50.681Z" agent="Mozilla/5.0 (Windows NT 10.0; Win64; x64) AppleWebKit/537.36 (KHTML, like Gecko) Chrome/124.0.0.0 Safari/537.36" etag="VNjfrhNykp5-6W2OdXpF" version="24.4.4" type="device">
  <diagram name="Page-1" id="biUEZ6oVffdYNooYX00t">
    <mxGraphModel dx="2120" dy="1163" grid="0" gridSize="10" guides="1" tooltips="1" connect="1" arrows="1" fold="1" page="0" pageScale="1" pageWidth="850" pageHeight="1100" math="0" shadow="0">
      <root>
        <mxCell id="0" />
        <mxCell id="1" parent="0" />
        <mxCell id="ky6zD6nGYv_ysbwUbKji-1" value="" style="rounded=0;whiteSpace=wrap;html=1;" vertex="1" parent="1">
          <mxGeometry x="-90" y="-128" width="857" height="631" as="geometry" />
        </mxCell>
        <mxCell id="ky6zD6nGYv_ysbwUbKji-2" value="" style="shape=parallelogram;perimeter=parallelogramPerimeter;whiteSpace=wrap;html=1;fixedSize=1;" vertex="1" parent="1">
          <mxGeometry x="241" y="-110" width="489" height="60" as="geometry" />
        </mxCell>
        <mxCell id="ky6zD6nGYv_ysbwUbKji-3" value="" style="shape=parallelogram;perimeter=parallelogramPerimeter;whiteSpace=wrap;html=1;fixedSize=1;" vertex="1" parent="1">
          <mxGeometry x="227" y="-11" width="498" height="60" as="geometry" />
        </mxCell>
        <mxCell id="ky6zD6nGYv_ysbwUbKji-4" value="" style="shape=parallelogram;perimeter=parallelogramPerimeter;whiteSpace=wrap;html=1;fixedSize=1;" vertex="1" parent="1">
          <mxGeometry x="213" y="88" width="509" height="60" as="geometry" />
        </mxCell>
        <mxCell id="ky6zD6nGYv_ysbwUbKji-5" value="" style="shape=parallelogram;perimeter=parallelogramPerimeter;whiteSpace=wrap;html=1;fixedSize=1;" vertex="1" parent="1">
          <mxGeometry x="205" y="187" width="516" height="60" as="geometry" />
        </mxCell>
        <mxCell id="ky6zD6nGYv_ysbwUbKji-7" value="" style="shape=parallelogram;perimeter=parallelogramPerimeter;whiteSpace=wrap;html=1;fixedSize=1;" vertex="1" parent="1">
          <mxGeometry x="200" y="286" width="516" height="60" as="geometry" />
        </mxCell>
        <mxCell id="ky6zD6nGYv_ysbwUbKji-8" value="" style="shape=parallelogram;perimeter=parallelogramPerimeter;whiteSpace=wrap;html=1;fixedSize=1;" vertex="1" parent="1">
          <mxGeometry x="190" y="385" width="525" height="60" as="geometry" />
        </mxCell>
      </root>
    </mxGraphModel>
  </diagram>
</mxfile>
